<svg width="204" height="204" viewBox="0 0 204 204" fill="none" xmlns="http://www.w3.org/2000/svg">
<circle r="90" cx="100" cy="100" stroke="url(#paint0_linear_16_339)" stroke-width="16px" stroke-linecap="round" stroke-dashoffset="170px" fill="transparent" stroke-dasharray="565.48px"></circle>
<circle r="90" cx="100" cy="100" stroke="url(#paint0_linear_16_339)" stroke-width="16px" stroke-linecap="round" stroke-dashoffset="170px" fill="transparent" stroke-dasharray="565.48px"></circle>

<path d="M66.08 99.16C66.08 103.804 69.32 107.512 74.036 107.512C74.648 107.512 75.08 107.44 75.332 107.296L69.896 115H77.528L83.072 106.18C84.476 103.912 85.376 101.32 85.376 98.98C85.376 93.724 81.308 89.8 75.728 89.8C70.256 89.8 66.08 93.76 66.08 99.16ZM72.416 98.908C72.416 97.072 73.892 95.668 75.764 95.668C77.636 95.668 79.076 97.108 79.076 98.944C79.076 100.78 77.636 102.184 75.764 102.184C73.892 102.184 72.416 100.744 72.416 98.908ZM94.3971 104.92C94.9371 104.056 95.9811 103.372 97.3131 103.372C99.1491 103.372 100.481 104.668 100.481 106.432C100.481 108.196 99.1491 109.6 97.3131 109.6C95.4051 109.6 94.3611 108.34 94.2531 107.224H87.9171C88.0251 112.228 91.6971 115.504 97.4211 115.504C102.785 115.504 106.889 111.508 106.889 106.108C106.889 101.644 103.685 97.936 98.9691 97.936C97.4211 97.936 96.0531 98.332 94.8651 99.088L95.3331 95.92H105.161V90.304H90.3651L88.5291 103.696L94.3971 104.92ZM121.357 96.028C121.357 92.608 118.585 89.944 115.021 89.944C111.457 89.944 108.685 92.608 108.685 96.028C108.685 99.448 111.457 102.112 115.021 102.112C118.585 102.112 121.357 99.448 121.357 96.028ZM117.109 96.028C117.109 97.288 116.209 98.152 115.021 98.152C113.833 98.152 112.933 97.288 112.933 96.028C112.933 94.768 113.833 93.904 115.021 93.904C116.209 93.904 117.109 94.768 117.109 96.028ZM134.857 90.268H129.349L110.989 115H116.497L134.857 90.268ZM124.489 109.24C124.489 112.66 127.261 115.324 130.825 115.324C134.389 115.324 137.161 112.66 137.161 109.24C137.161 105.82 134.389 103.156 130.825 103.156C127.261 103.156 124.489 105.82 124.489 109.24ZM128.737 109.24C128.737 107.98 129.637 107.116 130.825 107.116C132.013 107.116 132.913 107.98 132.913 109.24C132.913 110.5 132.013 111.364 130.825 111.364C129.637 111.364 128.737 110.5 128.737 109.24Z" fill="white"/>
<defs>
<linearGradient id="paint0_linear_16_339" x1="-12.4348" y1="91.2145" x2="228.124" y2="92.098" gradientUnits="userSpaceOnUse">
<stop stop-color="#AA367C"/>
<stop offset="1" stop-color="#4A2FBD"/>
</linearGradient>
</defs>
</svg>