<svg version="1.1" id="Icons" xmlns="http://www.w3.org/2000/svg" xmlns:xlink="http://www.w3.org/1999/xlink" x="0px" y="0px"
	 viewBox="0 0 48 48" style="enable-background:new 0 0 48 48;" xml:space="preserve">
<style type="text/css">
	.st0{opacity:0.15;fill:#45413C;}
	.st1{fill:#DAEDF7;stroke:#45413C;stroke-linecap:round;stroke-linejoin:round;stroke-miterlimit:10;}
	.st2{fill:#656769;}
	.st3{fill:#87898C;}
	.st4{fill:none;stroke:#45413C;stroke-linecap:round;stroke-linejoin:round;stroke-miterlimit:10;}
	.st5{fill:#DAEDF7;}
	.st6{fill:#E8F4FA;}
	.st7{fill:#FFFFFF;}
	.st8{fill:#E0E0E0;}
	.st9{fill:#00B8F0;}
	.st10{fill:#FF6242;stroke:#45413C;stroke-linecap:round;stroke-linejoin:round;stroke-miterlimit:10;}
	.st11{fill:#FFE500;stroke:#45413C;stroke-linecap:round;stroke-linejoin:round;stroke-miterlimit:10;}
	.st12{fill:#00DBA8;stroke:#45413C;stroke-linecap:round;stroke-linejoin:round;stroke-miterlimit:10;}
	.st13{fill:#BF8DF2;stroke:#45413C;stroke-linecap:round;stroke-linejoin:round;stroke-miterlimit:10;}
	.st14{fill:#00B8F0;stroke:#45413C;stroke-linecap:round;stroke-linejoin:round;stroke-miterlimit:10;}
	.st15{fill:#87898C;stroke:#45413C;stroke-linecap:round;stroke-linejoin:round;stroke-miterlimit:10;}
	.st16{fill:#FF6242;}
	.st17{fill:#E04122;}
	.st18{fill:#9CEB60;}
	.st19{fill:#6DD627;}
	.st20{fill:#FF866E;}
	.st21{fill:#F0F0F0;}
	.st22{fill:#009FD9;}
	.st23{fill:#656769;stroke:#45413C;stroke-linecap:round;stroke-linejoin:round;stroke-miterlimit:10;}
	.st24{fill:#ADC4D9;}
	.st25{fill:#8CA4B8;}
	.st26{fill:#BDBEC0;}
	.st27{fill:#C0DCEB;stroke:#45413C;stroke-linecap:round;stroke-linejoin:round;stroke-miterlimit:10;}
	.st28{fill:#4ACFFF;}
	.st29{fill:#FFFFFF;stroke:#45413C;stroke-linecap:round;stroke-linejoin:round;stroke-miterlimit:10;}
	.st30{fill:#C0DCEB;}
	.st31{fill:#FFAA54;stroke:#45413C;stroke-linecap:round;stroke-linejoin:round;stroke-miterlimit:10;}
	.st32{fill:#FF8A14;}
	.st33{fill:#FFAA54;}
	.st34{fill:#6DD627;stroke:#45413C;stroke-linecap:round;stroke-linejoin:round;stroke-miterlimit:10;}
	.st35{fill:#DEBB7E;}
	.st36{fill:#F0D5A8;}
	.st37{fill:none;stroke:#45413C;stroke-miterlimit:10;}
	.st38{fill:#FFE500;}
	.st39{fill:#FFF48C;}
	.st40{fill:#FFF48C;stroke:#45413C;stroke-linecap:round;stroke-linejoin:round;stroke-miterlimit:10;}
	.st41{fill:#FF8A14;stroke:#45413C;stroke-linecap:round;stroke-linejoin:round;stroke-miterlimit:10;}
	.st42{fill:#525252;}
	.st43{fill:#00F5BC;}
	.st44{fill:#8CFFE4;}
	.st45{fill:#00DBA8;}
	.st46{fill:#EBCB00;}
	.st47{fill:#FF866E;stroke:#45413C;stroke-linecap:round;stroke-linejoin:round;stroke-miterlimit:10;}
	.st48{fill:#FFCC99;}
	.st49{fill:#45413C;stroke:#45413C;stroke-linecap:round;stroke-linejoin:round;stroke-miterlimit:10;}
	.st50{fill:#C8FFA1;}
	.st51{fill:#BDBEC0;stroke:#45413C;stroke-linecap:round;stroke-linejoin:round;stroke-miterlimit:10;}
	.st52{fill:#80DDFF;}
	.st53{fill:#4ACFFF;stroke:#45413C;stroke-linecap:round;stroke-linejoin:round;stroke-miterlimit:10;}
	.st54{fill:#FFFCE5;}
	.st55{fill:#FFFACF;}
	.st56{fill:#627B8C;}
	.st57{fill:#BF8256;}
	.st58{fill:#DEA47A;}
	.st59{fill:#BF8256;stroke:#45413C;stroke-linecap:round;stroke-linejoin:round;stroke-miterlimit:10;}
	.st60{fill:#DEBB7E;stroke:#45413C;stroke-linecap:round;stroke-linejoin:round;stroke-miterlimit:10;}
	.st61{fill:#B89558;}
	.st62{fill:#B8ECFF;}
	.st63{fill:#F7E5C6;}
	.st64{fill:#FFF5E3;}
	.st65{fill:#915E3A;}
	.st66{fill:#45413C;stroke:#45413C;stroke-miterlimit:10;}
	.st67{fill:#FFB0CA;stroke:#45413C;stroke-linecap:round;stroke-linejoin:round;stroke-miterlimit:10;}
	.st68{fill:#FF87AF;stroke:#45413C;stroke-linecap:round;stroke-linejoin:round;stroke-miterlimit:10;}
	.st69{fill:#E5FEFF;}
	.st70{fill:#A6FBFF;}
	.st71{fill:#FFB0CA;}
	.st72{fill:#FF87AF;}
	.st73{fill:none;stroke:#45413C;stroke-linecap:round;stroke-miterlimit:10;}
	.st74{fill:#BF8DF2;}
	.st75{fill:#DABFF5;}
	.st76{fill:#4AEFF7;}
	.st77{fill:#00DFEB;}
	.st78{fill:#FFCEBF;}
	.st79{fill:#FF6196;stroke:#45413C;stroke-linecap:round;stroke-linejoin:round;stroke-miterlimit:10;}
	.st80{fill:#00DFEB;stroke:#45413C;stroke-linecap:round;stroke-linejoin:round;stroke-miterlimit:10;}
	.st81{fill:#FF6196;}
	.st82{fill:#EBCB00;stroke:#45413C;stroke-linecap:round;stroke-linejoin:round;stroke-miterlimit:10;}
	.st83{fill:#00F5BC;stroke:#45413C;stroke-linecap:round;stroke-linejoin:round;stroke-miterlimit:10;}
	.st84{fill:#4AEFF7;stroke:#45413C;stroke-linecap:round;stroke-linejoin:round;stroke-miterlimit:10;}
	.st85{fill:#46B000;}
	.st86{fill:#E0366F;}
	.st87{fill:#E0366F;stroke:#45413C;stroke-linecap:round;stroke-linejoin:round;stroke-miterlimit:10;}
	.st88{fill:none;stroke:#E04122;stroke-linecap:round;stroke-linejoin:round;stroke-miterlimit:10;}
	.st89{fill:#FFA694;}
	.st90{fill:#EDDBFF;stroke:#45413C;stroke-linecap:round;stroke-linejoin:round;stroke-miterlimit:10;}
	.st91{fill:none;stroke:#BF8DF2;stroke-linecap:round;stroke-linejoin:round;stroke-miterlimit:10;}
	.st92{fill:#EDDBFF;}
	.st93{fill:#DABFF5;stroke:#45413C;stroke-linecap:round;stroke-linejoin:round;stroke-miterlimit:10;}
	.st94{fill:#E04122;stroke:#45413C;stroke-linecap:round;stroke-linejoin:round;stroke-miterlimit:10;}
	.st95{fill:#EB6D00;}
	.st96{fill:none;stroke:#45413C;stroke-width:1.0064;stroke-linecap:round;stroke-linejoin:round;stroke-miterlimit:10;}
	.st97{fill:#915E3A;stroke:#45413C;stroke-linecap:round;stroke-linejoin:round;stroke-miterlimit:10;}
	.st98{fill:#E0E0E0;stroke:#45413C;stroke-linecap:round;stroke-linejoin:round;stroke-miterlimit:10;}
	.st99{fill:#F0F0F0;stroke:#45413C;stroke-linecap:round;stroke-linejoin:round;stroke-miterlimit:10;}
	.st100{fill:#46B000;stroke:#45413C;stroke-linecap:round;stroke-linejoin:round;stroke-miterlimit:10;}
	.st101{fill:#4F4B45;}
	.st102{fill:#FFDCD1;}
	.st103{fill:#8CA4B8;stroke:#45413C;stroke-linecap:round;stroke-linejoin:round;stroke-miterlimit:10;}
	.st104{fill:#E8F4FA;stroke:#45413C;stroke-linecap:round;stroke-linejoin:round;stroke-miterlimit:10;}
	.st105{fill:none;stroke:#48CF3E;stroke-linecap:round;stroke-linejoin:round;stroke-miterlimit:10;}
	.st106{fill:none;stroke:#FF4064;stroke-linecap:round;stroke-linejoin:round;stroke-miterlimit:10;}
	.st107{fill:none;stroke:#FFB700;stroke-linecap:round;stroke-linejoin:round;stroke-miterlimit:10;}
	.st108{fill:none;stroke:#00AED9;stroke-linecap:round;stroke-linejoin:round;stroke-miterlimit:10;}
	.st109{fill:#C0DCEB;stroke:#45413C;stroke-miterlimit:10;}
	.st110{fill:#525252;stroke:#45413C;stroke-linecap:round;stroke-linejoin:round;stroke-miterlimit:10;}
	.st111{fill:#FFF5E3;stroke:#45413C;stroke-linecap:round;stroke-linejoin:round;stroke-miterlimit:10;}
	.st112{fill:#FFFFFF;stroke:#45413C;stroke-linejoin:round;stroke-miterlimit:10;}
	.st113{fill:#F0C2A1;}
	.st114{fill:#DEA47A;stroke:#45413C;stroke-linecap:round;stroke-linejoin:round;stroke-miterlimit:10;}
	.st115{fill:#F0C2A1;stroke:#45413C;stroke-linecap:round;stroke-linejoin:round;stroke-miterlimit:10;}
	.st116{fill:#FFFEF2;}
	.st117{fill:#9CEB60;stroke:#45413C;stroke-linecap:round;stroke-linejoin:round;stroke-miterlimit:10;}
	.st118{fill:#9F5AE5;stroke:#45413C;stroke-linecap:round;stroke-linejoin:round;stroke-miterlimit:10;}
	.st119{fill:#627B8C;stroke:#45413C;stroke-linecap:round;stroke-linejoin:round;stroke-miterlimit:10;}
	.st120{fill:#FFFACF;stroke:#45413C;stroke-linecap:round;stroke-linejoin:round;stroke-miterlimit:10;}
</style>
<g>
	<path id="XMLID_15543_" class="st16" d="M14,26.6l5.7-7c0,0-4.4-1.2-8.5-0.2c-3.1,0.7-3.6,6.6-3.7,9.4c0,0.7,0.7,1.1,1.3,0.8
		L14,26.6z"/>
	<path id="XMLID_15542_" class="st20" d="M11.2,22c2.4-0.6,5-0.4,6.6-0.1l1.9-2.3c0,0-4.4-1.2-8.5-0.2c-3.1,0.7-3.6,6.6-3.7,9.4
		c0,0.2,0,0.3,0.1,0.5C8,26.3,8.8,22.6,11.2,22z"/>
	<path id="XMLID_15541_" class="st4" d="M14,26.6l5.7-7c0,0-4.4-1.2-8.5-0.2c-3.1,0.7-3.6,6.6-3.7,9.4c0,0.7,0.7,1.1,1.3,0.8
		L14,26.6z"/>
	<path id="XMLID_15540_" class="st16" d="M20.9,33.4l7-5.7c0,0,1.2,4.4,0.2,8.5c-0.7,3.1-6.6,3.6-9.4,3.7c-0.7,0-1.1-0.7-0.8-1.3
		L20.9,33.4z"/>
	<path id="XMLID_15539_" class="st20" d="M25.4,36.2c0.6-2.4,0.4-5,0.1-6.6l2.3-1.9c0,0,1.2,4.4,0.2,8.5c-0.7,3.1-6.6,3.6-9.4,3.7
		c-0.2,0-0.3,0-0.5-0.1C21.1,39.5,24.8,38.7,25.4,36.2z"/>
	<path id="XMLID_15538_" class="st4" d="M20.9,33.4l7-5.7c0,0,1.2,4.4,0.2,8.5c-0.7,3.1-6.6,3.6-9.4,3.7c-0.7,0-1.1-0.7-0.8-1.3
		L20.9,33.4z"/>
	<path class="st6" d="M39.5,21.6c5.4-5.7,3.7-12.7,2.9-15.2c-0.1-0.3-0.3-0.6-0.5-0.8c-0.2-0.2-0.5-0.4-0.8-0.5
		C38.6,4.3,31.6,2.5,25.9,8C18.8,14.7,14,26.5,14,26.5l7,7C20.9,33.5,32.8,28.6,39.5,21.6z"/>
	<path id="XMLID_15537_" class="st7" d="M28,11.9c5.5-5.3,12.3-3.8,15-2.9c-0.2-1.1-0.5-2-0.7-2.6c-0.2-0.6-0.7-1.1-1.3-1.3
		C38.6,4.3,31.6,2.5,25.9,8C18.8,14.7,14,26.5,14,26.5l2.7,2.7C18.1,26,22.4,17.3,28,11.9z"/>
	<path class="st4" d="M39.5,21.6c5.4-5.7,3.7-12.7,2.9-15.2c-0.1-0.3-0.3-0.6-0.5-0.8c-0.2-0.2-0.5-0.4-0.8-0.5
		C38.6,4.3,31.6,2.5,25.9,8C18.8,14.7,14,26.5,14,26.5l7,7C20.9,33.5,32.8,28.6,39.5,21.6z"/>
	<ellipse id="XMLID_15536_" class="st0" cx="28.2" cy="44.2" rx="10" ry="1.5"/>
	<path id="XMLID_15535_" class="st10" d="M22.7,25.6c0.3-0.6-0.3-1.2-0.9-0.9c-1.4,0.7-3.5,2-5.3,3.8c-2.3,2.3-3.4,4.7-3.9,5.9
		c-0.1,0.3,0.2,0.6,0.4,0.4c1.2-0.5,3.6-1.6,5.9-3.9C20.7,29.2,22,27.1,22.7,25.6z"/>
	
		<ellipse id="XMLID_15534_" transform="matrix(0.7071 -0.7071 0.7071 0.7071 0.1781 27.865)" class="st27" cx="33.7" cy="13.7" rx="5.5" ry="5.5"/>
	
		<ellipse id="XMLID_15533_" transform="matrix(0.7071 -0.7071 0.7071 0.7071 0.2105 27.8784)" class="st9" cx="33.8" cy="13.7" rx="3.8" ry="3.8"/>
	<path id="XMLID_15532_" class="st28" d="M31.1,11c-1.5,1.5-1.5,3.9,0,5.4c0.3,0.3,0.5,0.5,0.9,0.6l3.6-6.7C34,9.6,32.3,9.8,31.1,11
		z"/>
	
		<ellipse id="XMLID_15531_" transform="matrix(0.7071 -0.7071 0.7071 0.7071 0.2105 27.8784)" class="st4" cx="33.8" cy="13.7" rx="3.8" ry="3.8"/>
	<path id="XMLID_15530_" class="st41" d="M11.3,41.5c-0.7,0.7-5.2,2.2-7.4,2.9c-0.4,0.1-1-0.5-0.9-0.9c0.7-2.3,2.2-6.7,2.9-7.4
		c0.9-0.9,3.4-1,4.9,0.5C12.4,38,12.3,40.5,11.3,41.5z"/>
	<path id="XMLID_15529_" class="st11" d="M10.1,39.8c-0.5,0.5-2.6,1-3,0.6c-0.4-0.4,0.1-2.5,0.6-3s1.5-0.3,2.1,0.3
		C10.5,38.3,10.6,39.3,10.1,39.8z"/>
	<path id="XMLID_15528_" class="st38" d="M43.3,23.7l0.8,1.5c0.1,0.1,0.2,0.2,0.3,0.2l1.7,0.2c0.3,0,0.5,0.5,0.2,0.7l-1.2,1.2
		c-0.1,0.1-0.1,0.2-0.1,0.4l0.3,1.7c0.1,0.3-0.3,0.6-0.6,0.5l-1.5-0.8c-0.1-0.1-0.3-0.1-0.4,0l-1.5,0.8c-0.3,0.2-0.7-0.1-0.6-0.4
		L41,28c0-0.1,0-0.3-0.1-0.4l-1.3-1.2c-0.3-0.2-0.1-0.7,0.2-0.7l1.7-0.3c0.1,0,0.3-0.1,0.3-0.2l0.7-1.5
		C42.7,23.4,43.2,23.4,43.3,23.7z"/>
	<path id="XMLID_15527_" class="st39" d="M40.5,27.3l1.1-0.2c0.1,0,0.3-0.1,0.3-0.2l0.7-1.5c0.1-0.3,0.6-0.3,0.7,0l0.8,1.5
		c0.1,0.1,0.2,0.2,0.3,0.2l1.1,0.1l0.8-0.9c0.2-0.2,0.1-0.7-0.2-0.7l-1.7-0.2c-0.1,0-0.3-0.1-0.3-0.2l-0.8-1.5
		c-0.2-0.3-0.6-0.3-0.7,0l-0.7,1.5c-0.1,0.1-0.2,0.2-0.3,0.2l-1.7,0.3c-0.3,0.1-0.5,0.5-0.2,0.7L40.5,27.3z"/>
	<path id="XMLID_15526_" class="st4" d="M43.3,23.7l0.8,1.5c0.1,0.1,0.2,0.2,0.3,0.2l1.7,0.2c0.3,0,0.5,0.5,0.2,0.7l-1.2,1.2
		c-0.1,0.1-0.1,0.2-0.1,0.4l0.3,1.7c0.1,0.3-0.3,0.6-0.6,0.5l-1.5-0.8c-0.1-0.1-0.3-0.1-0.4,0l-1.5,0.8c-0.3,0.2-0.7-0.1-0.6-0.4
		L41,28c0-0.1,0-0.3-0.1-0.4l-1.3-1.2c-0.3-0.2-0.1-0.7,0.2-0.7l1.7-0.3c0.1,0,0.3-0.1,0.3-0.2l0.7-1.5
		C42.7,23.4,43.2,23.4,43.3,23.7z"/>
	<path id="XMLID_15525_" class="st38" d="M31.7,40.6l0.3,1.3c0,0.1,0.1,0.2,0.2,0.2l1.3,0.5c0.3,0.1,0.3,0.5,0,0.6L32.3,44
		c-0.1,0.1-0.2,0.2-0.2,0.3L32,45.6c0,0.3-0.4,0.4-0.6,0.2l-1-0.9c-0.1-0.1-0.2-0.1-0.3-0.1l-1.3,0.3c-0.3,0.1-0.5-0.2-0.4-0.5
		l0.6-1.3c0-0.1,0-0.2,0-0.3l-0.7-1.2c-0.1-0.2,0.1-0.5,0.3-0.5l1.4,0.2c0.1,0,0.2,0,0.3-0.1l0.9-1C31.3,40.2,31.7,40.3,31.7,40.6z"
		/>
	<path id="XMLID_15524_" class="st39" d="M28.8,42.8l0.9,0.1c0.1,0,0.2,0,0.3-0.1l0.9-1c0.2-0.2,0.5-0.1,0.6,0.2l0.3,1.3
		c0,0.1,0.1,0.2,0.2,0.2l0.8,0.3l0.8-0.5c0.2-0.1,0.2-0.5,0-0.6l-1.3-0.5c-0.1,0-0.2-0.1-0.2-0.2l-0.3-1.3c-0.1-0.3-0.4-0.4-0.6-0.2
		l-0.9,1c-0.1,0.1-0.2,0.1-0.3,0.1l-1.4-0.2c-0.3,0-0.5,0.3-0.3,0.5L28.8,42.8z"/>
	<path id="XMLID_15523_" class="st4" d="M31.7,40.6l0.3,1.3c0,0.1,0.1,0.2,0.2,0.2l1.3,0.5c0.3,0.1,0.3,0.5,0,0.6L32.3,44
		c-0.1,0.1-0.2,0.2-0.2,0.3L32,45.6c0,0.3-0.4,0.4-0.6,0.2l-1-0.9c-0.1-0.1-0.2-0.1-0.3-0.1l-1.3,0.3c-0.3,0.1-0.5-0.2-0.4-0.5
		l0.6-1.3c0-0.1,0-0.2,0-0.3l-0.7-1.2c-0.1-0.2,0.1-0.5,0.3-0.5l1.4,0.2c0.1,0,0.2,0,0.3-0.1l0.9-1C31.3,40.2,31.7,40.3,31.7,40.6z"
		/>
	
		<ellipse id="XMLID_15522_" transform="matrix(0.1423 -0.9898 0.9898 0.1423 1.0537 14.3913)" class="st18" cx="8.8" cy="6.6" rx="3.1" ry="3.1"/>
	<path id="XMLID_15521_" class="st50" d="M9.3,5.7c1.1,0.2,2,0.9,2.4,1.9c0.1-0.2,0.1-0.4,0.2-0.7c0.2-1.7-0.9-3.2-2.6-3.5
		C7.6,3.3,6,4.5,5.8,6.2c-0.1,0.5,0,1,0.2,1.5C6.5,6.4,7.8,5.5,9.3,5.7z"/>
	
		<ellipse id="XMLID_15520_" transform="matrix(0.1423 -0.9898 0.9898 0.1423 1.0537 14.3913)" class="st4" cx="8.8" cy="6.6" rx="3.1" ry="3.1"/>
	<path id="XMLID_15519_" class="st4" d="M5.9,7.3C5.1,7.8,3.6,9,4,9.9c0.5,0.9,10.5-5.1,10.1-6c-0.3-0.8-2.5,0.1-3.3,0.5"/>
</g>
</svg>