<svg width="38" height="17" viewBox="0 0 38 17" fill="none" xmlns="http://www.w3.org/2000/svg">
<path d="M35.5149 17V14.408H37.8429V17H35.5149Z" fill="white"/>
<path d="M20.3563 17V15.392L29.6203 2.264H20.5963V0.440002H32.1163V2.048L22.8523 15.176H32.3563V17H20.3563Z" fill="white"/>
<path d="M14.8899 17V14.408H17.2179V17H14.8899Z" fill="white"/>
<path d="M0.440002 16.16V15.176H7.832C8.92 15.176 9.464 14.632 9.464 13.544V11.6C9.464 10.688 9.056 10.152 8.24 9.992L3.08 8.936C1.32 8.584 0.440002 7.408 0.440002 5.408V4.112C0.440002 1.664 1.664 0.440002 4.112 0.440002H9.92L11 1.28V2.264H4.088C3 2.264 2.456 2.808 2.456 3.896V5.528C2.456 6.44 2.864 6.976 3.68 7.136L8.84 8.168C10.6 8.52 11.48 9.704 11.48 11.72V13.328C11.48 15.776 10.256 17 7.808 17H1.52L0.440002 16.16Z" fill="white"/>
</svg>
